<?xml version="1.0" encoding="utf-8"?>
<!-- Generator: Adobe Illustrator 18.1.0, SVG Export Plug-In . SVG Version: 6.00 Build 0)  -->
<svg version="1.1" id="Layer_1" xmlns="http://www.w3.org/2000/svg" xmlns:xlink="http://www.w3.org/1999/xlink" x="0px" y="0px"
	 viewBox="0 0 58 30" enable-background="new 0 0 58 30" xml:space="preserve">
<g>
	<path fill="#50B48C" d="M30.7,8.8c0-4.9-4-8.8-8.8-8.8c-2.4,0-4.6,1-6.2,2.5C14.1,1,11.9,0,9.6,0C4.7,0,0.7,4,0.7,8.8
		c0,2.4,1,4.6,2.5,6.2c-1.6,1.6-2.5,3.8-2.5,6.2c0,4.9,4,8.8,8.8,8.8c2.4,0,4.6-1,6.2-2.5c1.6,1.6,3.8,2.5,6.2,2.5
		c4.9,0,8.8-4,8.8-8.8c0-2.4-1-4.6-2.5-6.2C29.8,13.4,30.7,11.2,30.7,8.8z M21.9,5.4c1.9,0,3.5,1.6,3.5,3.5c0,1.9-1.6,3.5-3.5,3.5
		h-3.5V8.8C18.4,6.9,20,5.4,21.9,5.4z M9.6,5.4c1.9,0,3.5,1.6,3.5,3.5v3.5H9.6c-1.9,0-3.5-1.6-3.5-3.5C6.1,6.9,7.6,5.4,9.6,5.4z
		 M9.6,24.6c-1.9,0-3.5-1.6-3.5-3.5c0-1.9,1.6-3.5,3.5-3.5H13v3.5C13,23.1,11.5,24.6,9.6,24.6z M21.9,24.6c-1.9,0-3.5-1.6-3.5-3.5
		v-3.5h3.5c1.9,0,3.5,1.6,3.5,3.5C25.4,23.1,23.8,24.6,21.9,24.6z"/>
	<path fill="#50B48C" d="M46,0c-6.5,0-11.8,5.3-11.8,11.8v9.2v2.6v3.6c0,1.5,1.2,2.7,2.7,2.7c1.5,0,2.7-1.2,2.7-2.7v-3.6H46
		c6.5,0,11.8-5.3,11.8-11.8C57.9,5.4,52.6,0,46,0z M46,18.4h-6.5v-6.5c0-3.6,2.9-6.5,6.5-6.5s6.5,2.9,6.5,6.5
		C52.5,15.5,49.6,18.4,46,18.4z"/>
</g>
</svg>
