<?xml version="1.0" encoding="utf-8"?>
<!-- Generator: Adobe Illustrator 18.1.0, SVG Export Plug-In . SVG Version: 6.00 Build 0)  -->
<svg version="1.1" id="Layer_1" xmlns="http://www.w3.org/2000/svg" xmlns:xlink="http://www.w3.org/1999/xlink" x="0px" y="0px"
	 viewBox="7.2 267 586.1 307.9" enable-background="new 7.2 267 586.1 307.9" xml:space="preserve">
<g>
	<path fill="#FFFFFF" d="M315.1,357.3c0-50.3-41.1-90.3-90.3-90.3c-24.6,0-47.2,10.3-63.6,25.7c-16.4-15.4-39-25.7-62.6-25.7
		C48.2,267,7.2,308,7.2,357.3c0,24.6,10.3,47.2,25.7,63.6c-16.4,16.4-25.7,39-25.7,63.6c0,50.3,41.1,90.3,90.3,90.3
		c24.6,0,47.2-10.3,63.6-25.7c16.4,16.4,39,25.7,63.6,25.7c50.3,0,90.3-41.1,90.3-90.3c0-24.6-10.3-47.2-25.7-63.6
		C305.9,404.5,315.1,381.9,315.1,357.3z M224.8,322.4c19.5,0,35.9,16.4,35.9,35.9s-16.4,35.9-35.9,35.9h-35.9v-36.9
		C188.8,337.8,205.3,322.4,224.8,322.4z M98.5,322.4c19.5,0,35.9,16.4,35.9,35.9v35.9H98.5c-19.5,0-35.9-16.4-35.9-35.9
		C62.6,337.8,78,322.4,98.5,322.4z M98.5,519.5c-19.5,0-35.9-16.4-35.9-35.9s16.4-35.9,35.9-35.9h34.9v35.9
		C133.4,504.1,118,519.5,98.5,519.5z M224.8,519.5c-19.5,0-35.9-16.4-35.9-35.9v-35.9h35.9c19.5,0,35.9,16.4,35.9,35.9
		C260.7,504.1,244.3,519.5,224.8,519.5z"/>
	<path fill="#FFFFFF" d="M472.1,267C405.4,267,351,321.4,351,388.1v94.4v26.7v36.9c0,15.4,12.3,27.7,27.7,27.7s27.7-12.3,27.7-27.7
		v-36.9h65.7c66.7,0,121.1-54.4,121.1-121.1C594.3,322.4,539.9,267,472.1,267z M472.1,455.8h-66.7v-66.7c0-36.9,29.8-66.7,66.7-66.7
		s66.7,29.8,66.7,66.7S509.1,455.8,472.1,455.8z"/>
</g>
</svg>
