<?xml version="1.0" encoding="utf-8"?>
<!-- Generator: Adobe Illustrator 18.1.0, SVG Export Plug-In . SVG Version: 6.00 Build 0)  -->
<svg version="1.1" baseProfile="tiny" id="圖層_1"
	 xmlns="http://www.w3.org/2000/svg" xmlns:xlink="http://www.w3.org/1999/xlink" x="0px" y="0px" viewBox="0 0 128 50"
	 xml:space="preserve">
<g>
	<path fill="#4FB58D" d="M27.5,15c1.6-1.6,2.5-3.8,2.5-6.2C30,3.9,26,0,21.2,0c-2.4,0-4.6,1-6.2,2.5C13.4,1,11.2,0,8.9,0
		C4,0,0,4,0,8.8c0,2.4,1,4.6,2.5,6.2C0.9,16.6,0,18.8,0,21.2C0,26.1,4,30,8.8,30c2.4,0,4.6-1,6.2-2.5c1.6,1.6,3.8,2.5,6.2,2.5
		c4.9,0,8.8-4,8.8-8.8C30,18.8,29,16.6,27.5,15z M12.3,21.1c0,2-1.5,3.5-3.4,3.5c-1.9,0-3.5-1.6-3.5-3.5c0-1.9,1.6-3.5,3.5-3.5h3.4
		V21.1z M12.4,12.4H8.9c-1.9,0-3.5-1.6-3.5-3.5c0-2,1.5-3.5,3.5-3.5c1.9,0,3.5,1.6,3.5,3.5V12.4z M21.2,24.6c-1.9,0-3.5-1.6-3.5-3.5
		v-3.5h3.5c1.9,0,3.5,1.6,3.5,3.5C24.7,23.1,23.1,24.6,21.2,24.6z M21.2,12.4h-3.5V8.8c0-1.9,1.6-3.4,3.5-3.4c1.9,0,3.5,1.6,3.5,3.5
		C24.7,10.8,23.1,12.4,21.2,12.4z"/>
	<path fill="#4FB58D" d="M36.2,29.9c1.5,0,2.7-1.2,2.7-2.7v-3.6h6.4c6.5,0,11.8-5.3,11.8-11.8C57.2,5.4,51.9,0,45.3,0
		c-6.5,0-11.8,5.3-11.8,11.8V21v2.6v3.6C33.5,28.7,34.7,29.9,36.2,29.9z M38.8,11.9c0-3.6,2.9-6.5,6.5-6.5s6.5,2.9,6.5,6.5
		c0,3.6-2.9,6.5-6.5,6.5h-6.5V11.9z"/>
	<path fill="#4FB58D" d="M10.5,35.7H2.1c-0.4,0-0.6,0.3-0.6,0.7c0,0.4,0.2,0.6,0.6,0.6h8c0.6,0,0.8,0.2,0.8,0.7V44
		c0,0.6-0.2,0.7-0.8,0.7H1.8c-0.4,0-0.6,0.2-0.6,0.6c0,0.4,0.2,0.7,0.6,0.7h8.7c1.2,0,1.7-0.6,1.7-1.9v-6.7
		C12.2,36.3,11.7,35.7,10.5,35.7z"/>
	<path fill="#4FB58D" d="M25.7,35.7l-10.4,0c-0.3,0-0.5,0.3-0.5,0.7c0,0.4,0.2,0.6,0.5,0.6l9.8,0c0.4,0,0.6,0.1,0.6,0.4
		c0,0.1,0,0.3-0.1,0.4c-0.9,1.7-2.8,3.5-4.7,4.7c-0.9-1-1.9-2-2.9-2.9c-0.2-0.1-0.3-0.2-0.5-0.2c-0.1,0-0.3,0-0.4,0.2
		c-0.2,0.1-0.3,0.3-0.3,0.5c0,0.2,0.1,0.3,0.2,0.4c1.9,1.7,3.8,3.9,5.3,6c0.2,0.2,0.4,0.4,0.6,0.4c0.1,0,0.3,0,0.4-0.1
		c0.2-0.1,0.3-0.4,0.3-0.6c0-0.1,0-0.3-0.1-0.4c-0.5-0.8-1.1-1.5-1.8-2.2c2.1-1.4,4.2-3.3,5.3-5.3c0.2-0.4,0.3-0.8,0.3-1.1
		c0-0.3-0.1-0.6-0.3-0.8C26.7,35.9,26.2,35.7,25.7,35.7z"/>
	<path fill="#4FB58D" d="M38.4,36h-9.3c-0.3,0-0.6,0.3-0.6,0.6c0,0.4,0.2,0.7,0.6,0.7H38c0.5,0,0.7,0.1,0.7,0.5c0,0.1,0,0.2,0,0.2
		c-0.5,4.1-3.5,7-7.9,8.2c-0.3,0.1-0.5,0.3-0.5,0.6c0,0.1,0,0.2,0,0.2c0.1,0.3,0.3,0.4,0.6,0.4c0.1,0,0.2,0,0.3,0
		c5.1-1.3,8.3-4.7,9-9.4c0-0.2,0-0.3,0-0.4c0-0.4-0.1-0.8-0.3-1.1C39.5,36.2,39.1,36,38.4,36z"/>
	<path fill="#4FB58D" d="M41.3,33.2c-0.9,0-1.7,0.8-1.7,1.7s0.8,1.7,1.7,1.7s1.7-0.8,1.7-1.7S42.2,33.2,41.3,33.2z M41.3,35.9
		c-0.5,0-0.9-0.4-0.9-0.9s0.4-0.9,0.9-0.9c0.5,0,0.9,0.4,0.9,0.9S41.8,35.9,41.3,35.9z"/>
	<path fill="#4FB58D" d="M53.4,34.5c-0.4,0-0.7,0.2-0.7,0.6v4.8c0,2-0.4,3.3-1.4,4.2c-1,0.9-2.5,1.5-4,1.7c-0.4,0-0.6,0.3-0.6,0.6
		c0,0.1,0,0.1,0,0.2c0.1,0.3,0.3,0.5,0.7,0.5c0,0,0.1,0,0.1,0c1.7-0.2,3.5-0.9,4.7-2c1.3-1.1,1.9-2.8,1.9-5v-5
		C54.1,34.7,53.8,34.5,53.4,34.5z"/>
	<path fill="#4FB58D" d="M45.8,34.5c-0.4,0-0.7,0.2-0.7,0.6v6.7c0,0.4,0.3,0.6,0.7,0.6c0.4,0,0.7-0.2,0.7-0.6v-6.7
		C46.5,34.7,46.2,34.5,45.8,34.5z"/>
</g>
</svg>
