<?xml version="1.0" encoding="utf-8"?>
<!-- Generator: Adobe Illustrator 18.1.0, SVG Export Plug-In . SVG Version: 6.00 Build 0)  -->
<svg version="1.1" baseProfile="tiny" id="圖層_1"
	 xmlns="http://www.w3.org/2000/svg" xmlns:xlink="http://www.w3.org/1999/xlink" x="0px" y="0px" viewBox="0 0 128 50"
	 xml:space="preserve">
<g>
	<path fill="#4FB58D" d="M21.2,10c-2.4,0-4.6,1-6.2,2.5C13.4,11,11.2,10,8.9,10C4,10,0,14,0,18.8c0,2.4,1,4.6,2.5,6.2
		C0.9,26.6,0,28.8,0,31.2C0,36.1,4,40,8.8,40c2.4,0,4.6-1,6.2-2.5c1.6,1.6,3.8,2.5,6.2,2.5c4.9,0,8.8-4,8.8-8.8c0-2.4-1-4.6-2.5-6.2
		c1.6-1.6,2.5-3.8,2.5-6.2C30,13.9,26,10,21.2,10z M12.3,31.1c0,2-1.5,3.5-3.4,3.5c-1.9,0-3.5-1.6-3.5-3.5c0-1.9,1.6-3.5,3.5-3.5
		h3.4V31.1z M12.4,22.4H8.9c-1.9,0-3.5-1.6-3.5-3.5c0-2,1.5-3.5,3.5-3.5c1.9,0,3.5,1.6,3.5,3.5V22.4z M21.2,34.6
		c-1.9,0-3.5-1.6-3.5-3.5v-3.5h3.5c1.9,0,3.5,1.6,3.5,3.5C24.7,33.1,23.1,34.6,21.2,34.6z M21.2,22.4h-3.5v-3.6
		c0-1.9,1.6-3.4,3.5-3.4c1.9,0,3.5,1.6,3.5,3.5C24.7,20.8,23.1,22.4,21.2,22.4z"/>
	<path fill="#4FB58D" d="M45.3,10c-6.5,0-11.8,5.3-11.8,11.8V31v2.6v3.6c0,1.5,1.2,2.7,2.7,2.7s2.7-1.2,2.7-2.7v-3.6h6.4
		c6.5,0,11.8-5.3,11.8-11.8C57.2,15.4,51.9,10,45.3,10z M45.3,28.4h-6.5v-6.5c0-3.6,2.9-6.5,6.5-6.5s6.5,2.9,6.5,6.5
		C51.8,25.5,48.9,28.4,45.3,28.4z"/>
</g>
</svg>
