<?xml version="1.0" encoding="utf-8"?>
<!-- Generator: Adobe Illustrator 18.1.0, SVG Export Plug-In . SVG Version: 6.00 Build 0)  -->
<svg version="1.1" id="圖層_1" xmlns="http://www.w3.org/2000/svg" xmlns:xlink="http://www.w3.org/1999/xlink" x="0px" y="0px"
	 viewBox="0 0 128 50" enable-background="new 0 0 128 50" xml:space="preserve">
<g>
	<path fill="#4FB58D" d="M21.2,10c-2.4,0-4.6,1-6.2,2.5C13.4,11,11.2,10,8.9,10C4,10,0,14,0,18.8c0,2.4,1,4.6,2.5,6.2
		C0.9,26.6,0,28.8,0,31.2C0,36.1,4,40,8.8,40c2.4,0,4.6-1,6.2-2.5c1.6,1.6,3.8,2.5,6.2,2.5c4.9,0,8.8-4,8.8-8.8c0-2.4-1-4.6-2.5-6.2
		c1.6-1.6,2.5-3.8,2.5-6.2C30,13.9,26,10,21.2,10z M12.3,31.1c0,2-1.5,3.5-3.4,3.5c-1.9,0-3.5-1.6-3.5-3.5c0-1.9,1.6-3.5,3.5-3.5
		h3.4V31.1z M12.4,22.4H8.9c-1.9,0-3.5-1.6-3.5-3.5c0-2,1.5-3.5,3.5-3.5c1.9,0,3.5,1.6,3.5,3.5V22.4z M21.2,34.6
		c-1.9,0-3.5-1.6-3.5-3.5v-3.5h3.5c1.9,0,3.5,1.6,3.5,3.5C24.7,33.1,23.1,34.6,21.2,34.6z M21.2,22.4h-3.5v-3.6
		c0-1.9,1.6-3.4,3.5-3.4c1.9,0,3.5,1.6,3.5,3.5C24.7,20.8,23.1,22.4,21.2,22.4z"/>
	<path fill="#4FB58D" d="M45.3,10c-6.5,0-11.8,5.3-11.8,11.8V31v2.6v3.6c0,1.5,1.2,2.7,2.7,2.7s2.7-1.2,2.7-2.7v-3.6h6.4
		c6.5,0,11.8-5.3,11.8-11.8C57.2,15.4,51.9,10,45.3,10z M45.3,28.4h-6.5v-6.5c0-3.6,2.9-6.5,6.5-6.5s6.5,2.9,6.5,6.5
		C51.8,25.5,48.9,28.4,45.3,28.4z"/>
	<path fill="#4FB58D" d="M86.1,12.9c1.1,1,2.4,2.5,3.4,3.8c0.3,0.4,0.6,0.5,1,0.5c0.3,0,0.5-0.1,0.7-0.3c0.3-0.2,0.4-0.5,0.4-0.9
		c0-0.3-0.1-0.6-0.4-0.9c-0.9-1.3-2.3-2.8-3.6-3.9c-0.3-0.3-0.6-0.4-0.9-0.4c-0.2,0-0.5,0.1-0.7,0.3c-0.3,0.3-0.4,0.5-0.4,0.9
		C85.7,12.3,85.8,12.7,86.1,12.9z"/>
	<path fill="#4FB58D" d="M93.1,31.5c-0.1,0-0.1,0-0.2,0c-0.6,0-1,0.3-1.1,1c-0.1,1.4-0.4,2.5-0.7,3c-0.2,0.4-0.4,0.5-0.6,0.5
		c-0.2,0-0.5-0.1-0.8-0.4c-1.2-1-2.2-2.5-3.2-4.4c1.8-2,3.4-4.2,4.5-6.5c0.1-0.2,0.2-0.4,0.2-0.6c0-0.4-0.2-0.7-0.7-1
		c-0.2-0.1-0.4-0.2-0.6-0.2c-0.4,0-0.8,0.2-1,0.6c-0.9,1.9-2,3.7-3.4,5.3c-0.3-0.7-0.5-1.3-0.7-2c-0.5-1.7-0.8-3.5-1.1-5.6l9.2-0.1
		c0.6,0,0.9-0.5,0.9-1.2S93.5,19,92.9,19l-9.4,0.1c-0.2-2.4-0.2-5-0.2-8c0-0.7-0.5-1-1.2-1c-0.7,0-1.2,0.3-1.2,1c0,3,0.1,5.6,0.3,8
		l-7.5,0V14c1.5-0.4,3-0.9,4.3-1.4c0.5-0.2,0.8-0.6,0.8-1.1c0-0.2,0-0.4-0.1-0.6c-0.2-0.4-0.5-0.7-1-0.7c-0.2,0-0.4,0-0.6,0.1
		c-3,1.4-7.2,2.4-10.9,2.9c-0.5,0.1-0.9,0.4-0.9,1.1c0,0.1,0,0.1,0,0.2c0.1,0.6,0.5,1,1.1,1c0.1,0,0.2,0,0.3,0
		c1.5-0.2,3.1-0.5,4.6-0.9v4.5l-5.9,0c-0.6,0-0.9,0.5-0.9,1.2c0,0.7,0.3,1.1,0.9,1.1l5.9,0v5.4c-2,0.4-3.9,0.8-5.8,1.2
		c-0.6,0.1-1,0.4-1,1.1c0,0.1,0,0.2,0,0.3c0.1,0.6,0.5,1,1.1,1c0.1,0,0.1,0,0.2,0c1.8-0.4,3.6-0.7,5.4-1.2v5.9
		c0,1.1-0.3,1.3-1.2,1.3c-0.7,0-1.6-0.1-2.3-0.3c-0.1,0-0.2,0-0.4,0c-0.5,0-0.8,0.3-1,0.9c0,0.1,0,0.3,0,0.4c0,0.6,0.3,1,0.9,1.2
		c0.8,0.2,1.9,0.3,2.9,0.3c2.7,0,3.5-0.9,3.5-3.2v-6.9c1.9-0.5,3.6-1,5.2-1.5c0.5-0.2,0.7-0.6,0.7-1c0-0.1,0-0.3-0.1-0.4
		c-0.1-0.5-0.4-0.8-0.9-0.8c-0.1,0-0.3,0-0.4,0.1c-1.3,0.4-2.9,0.9-4.6,1.3v-4.9l7.7,0c0.3,2.5,0.7,4.6,1.2,6.6c0.3,1,0.6,2,1.1,2.9
		c-2.2,2.1-4.8,3.7-7.7,5c-0.4,0.2-0.7,0.6-0.7,1c0,0.2,0.1,0.5,0.2,0.7c0.2,0.4,0.6,0.6,1,0.6c0.2,0,0.4-0.1,0.6-0.2
		c2.8-1.2,5.3-2.9,7.6-5c1.1,2,2.3,3.6,3.6,4.7c0.8,0.7,1.7,1.1,2.4,1.1c0.9,0,1.6-0.5,2.1-1.5c0.7-1.2,1.2-3,1.3-4.5
		c0,0,0-0.1,0-0.2C94.1,31.9,93.7,31.5,93.1,31.5z"/>
	<path fill="#4FB58D" d="M121.8,11.3h-7.5c-2,0-2.9,0.8-2.9,2.9v24.2c0,0.6,0.5,1,1.3,1c0.8,0,1.3-0.3,1.3-1V14.8
		c0-0.9,0.3-1.2,1.3-1.2h5.6c1,0,1.3,0.3,1.3,1.2v16.3c0,1.1-0.3,1.2-1.7,1.2c-0.6,0-1.5-0.1-2.1-0.3c-0.1,0-0.2,0-0.2,0
		c-0.4,0-0.9,0.3-1,1c0,0.1,0,0.2,0,0.3c0,0.6,0.3,1.1,0.9,1.2c0.8,0.2,1.9,0.2,2.8,0.2c2.8,0,3.9-0.9,3.9-3.3V14.2
		C124.7,12.1,123.8,11.3,121.8,11.3z"/>
	<path fill="#4FB58D" d="M100.8,15.1c3-0.7,6-1.6,8-2.6c0.4-0.2,0.7-0.6,0.7-1.1c0-0.2,0-0.4-0.1-0.6c-0.3-0.5-0.7-0.8-1.1-0.8
		c-0.3,0-0.5,0.1-0.7,0.2c-1.8,0.8-4.5,1.9-8,2.6c-1.3,0.3-2.1,1-2.1,2.5v16.7c0,2,0.8,2.9,2.8,2.9h8.3c0.6,0,0.9-0.5,0.9-1.2
		c0-0.6-0.4-1.2-0.9-1.2h-7.3c-1,0-1.3-0.3-1.3-1.2v-7.4h8.3c0.6,0,1-0.5,1-1.2s-0.4-1.2-1-1.2H100v-5.4
		C100,15.6,100.1,15.2,100.8,15.1z"/>
</g>
</svg>
