<?xml version="1.0" encoding="utf-8"?>
<!-- Generator: Adobe Illustrator 16.0.0, SVG Export Plug-In . SVG Version: 6.00 Build 0)  -->
<!DOCTYPE svg PUBLIC "-//W3C//DTD SVG 1.1//EN" "http://www.w3.org/Graphics/SVG/1.1/DTD/svg11.dtd">
<svg version="1.1" id="Layer_1" xmlns="http://www.w3.org/2000/svg" xmlns:xlink="http://www.w3.org/1999/xlink" x="0px" y="0px"
	 width="2500px" height="2500px" viewBox="0 0 2500 2500" enable-background="new 0 0 2500 2500" xml:space="preserve">
<g>
	<polygon fill="#F7941E" points="1162.035,1518.44 1144.147,1568.835 1179.73,1568.835 1162.42,1518.44 	"/>
	<path fill="#F7941E" d="M1240.27,2128.776h-33.081v38.663h33.081c13.659,0,20.775-5.772,20.775-19.621
		C1261.045,2134.548,1253.929,2128.776,1240.27,2128.776z"/>
	<polygon fill="#F7941E" points="1059.255,2139.162 1041.368,2189.556 1076.95,2189.556 1059.64,2139.162 	"/>
	<path fill="#F7941E" d="M2007.006,1241.549l355.075-620.723h-375.703L2341.453,0.101H138.788l355.458,620.725H159.415
		l355.458,620.723H149.102l355.457,620.721H143.945l362.156,637.832h1475.652l364.859-637.832h-349.92l355.075-620.721H2007.006z
		 M1226.413,863.867h30.197v137.332h-30.197V863.867z M958.708,1621.922h-30.197V1484.59h30.197v52.703h55.587v-52.703h30.197
		v137.332h-30.197v-59.24h-55.587V1621.922z M1095.223,2242.644l-10.386-30.583h-51.354l-10.772,30.583h-30.582l52.125-137.332
		h30.967l51.354,137.332H1095.223z M1125.491,1621.922h-30.583l52.125-137.332h30.967l51.353,137.332h-31.352l-10.385-30.581
		h-51.354L1125.491,1621.922z M1265.083,2242.644c-3.463-8.657-3.269-21.927-4.808-32.891c-2.118-14.426-7.695-20.772-22.89-20.772
		h-30.197v53.663h-30.198v-137.332h74.049c24.619,0,40.202,17.118,40.202,37.894c0,16.153-6.348,28.272-21.735,34.426v0.385
		c14.81,4.038,19.042,18.081,20.002,32.121c0.579,8.656,0.194,25.005,5.772,32.507H1265.083z M1340.359,1621.922h-30.197v-111.942
		H1269v-25.39h112.521v25.39h-41.162V1621.922z M1456.097,2130.701h-41.162v111.942h-30.196v-111.942h-41.162v-25.39h112.521
		V2130.701z M1540.029,1621.922h-104.251V1484.59h102.712v25.39h-72.514v29.428h66.551v23.465h-66.551v33.66h74.053V1621.922z"/>
</g>
</svg>
