<?xml version="1.0" encoding="utf-8"?>
<!-- Generator: Adobe Illustrator 16.0.0, SVG Export Plug-In . SVG Version: 6.00 Build 0)  -->
<!DOCTYPE svg PUBLIC "-//W3C//DTD SVG 1.1//EN" "http://www.w3.org/Graphics/SVG/1.1/DTD/svg11.dtd">
<svg version="1.1" id="Layer_1" xmlns="http://www.w3.org/2000/svg" xmlns:xlink="http://www.w3.org/1999/xlink" x="0px" y="0px"
	 width="2500px" height="2500px" viewBox="0 0 2500 2500" enable-background="new 0 0 2500 2500" xml:space="preserve">
<g>
	<polygon fill="none" points="1279.396,1464.922 1279.396,1464.922 1238.202,1506.117 	"/>
	<polygon opacity="0.5" points="1238.202,1506.117 1279.396,1464.922 1279.396,1303.561 1118.337,1303.561 742.007,1679.895 
		742.007,1841.125 903.204,1841.125 1096.652,1647.67 1096.644,1647.67 	"/>
	<polygon fill="#231F20" points="1697.958,1647.67 1697.958,1461.205 1465.86,1461.205 1465.86,1303.561 1279.536,1303.561 
		1279.396,1303.561 1279.396,1464.922 1279.396,1464.922 1238.202,1506.117 1096.644,1647.67 1096.652,1647.67 1279.396,1647.67 
		1279.396,1887.373 1047.296,1887.373 1047.296,2073.832 1279.396,2073.832 1279.396,2313.541 1047.296,2313.541 1047.296,2500 
		1697.958,2500 1697.958,2313.541 1465.86,2313.541 1465.86,2073.832 1697.958,2073.832 1697.958,1887.373 1465.86,1887.373 
		1465.86,1647.67 	"/>
</g>
<g>
	<polygon opacity="0.5" points="1217.666,650.667 1217.666,514.679 866.59,865.764 866.59,1026.983 1027.79,1026.983 
		1312.046,742.716 1219.992,650.667 	"/>
	<polygon fill="#231F20" points="1404.13,512.381 1404.13,0 1217.666,0 1217.666,514.679 1217.666,650.667 1219.992,650.667 
		1312.046,742.716 1596.329,1026.983 1757.559,1026.983 1757.559,865.782 	"/>
</g>
</svg>
